<svg width="1801" height="184" viewBox="0 0 1801 184" fill="none" xmlns="http://www.w3.org/2000/svg">
<g filter="url(#filter0_ddiiii_94_209)">
<path d="M17 146V2.99999H49V61.6H149.8V2.99999H181.8V146H149.8V87.6H49V146H17ZM259.573 147C241.707 147 227.773 142.6 217.773 133.8C207.773 124.867 202.773 111.8 202.773 94.6C202.773 77.2667 207.773 64.2 217.773 55.4C227.773 46.4667 241.707 42 259.573 42H296.573C314.44 42 328.373 46.4667 338.373 55.4C348.373 64.2 353.373 77.2667 353.373 94.6C353.373 111.8 348.373 124.867 338.373 133.8C328.373 142.6 314.44 147 296.573 147H259.573ZM259.573 124H296.573C305.24 124 311.84 121.6 316.373 116.8C321.04 112 323.373 104.6 323.373 94.6C323.373 84.4667 321.04 77 316.373 72.2C311.84 67.4 305.24 65 296.573 65H259.573C250.907 65 244.24 67.4 239.573 72.2C235.04 77 232.773 84.4667 232.773 94.6C232.773 104.6 235.04 112 239.573 116.8C244.24 121.6 250.907 124 259.573 124ZM371.422 146V43H450.222C461.822 43 470.355 45.9333 475.822 51.8C481.289 57.5333 484.022 65.1333 484.022 74.6V96H454.622V78.2C454.622 70.2 450.622 66.2 442.622 66.2H400.822V146H371.422ZM499.938 146V43H528.938V146H499.938ZM499.738 26V3.39999H529.138V26H499.738ZM547.914 146V124.8L629.114 66H551.314V43H671.514V64.2L590.314 123H671.514V146H547.914ZM743.363 147C725.496 147 711.563 142.6 701.563 133.8C691.563 124.867 686.563 111.8 686.563 94.6C686.563 77.2667 691.563 64.2 701.563 55.4C711.563 46.4667 725.496 42 743.363 42H780.363C798.229 42 812.163 46.4667 822.163 55.4C832.163 64.2 837.163 77.2667 837.163 94.6C837.163 111.8 832.163 124.867 822.163 133.8C812.163 142.6 798.229 147 780.363 147H743.363ZM743.363 124H780.363C789.029 124 795.629 121.6 800.163 116.8C804.829 112 807.163 104.6 807.163 94.6C807.163 84.4667 804.829 77 800.163 72.2C795.629 67.4 789.029 65 780.363 65H743.363C734.696 65 728.029 67.4 723.363 72.2C718.829 77 716.563 84.4667 716.563 94.6C716.563 104.6 718.829 112 723.363 116.8C728.029 121.6 734.696 124 743.363 124ZM855.211 146V43H945.011C956.744 43 965.278 45.9333 970.611 51.8C976.078 57.5333 978.811 65.1333 978.811 74.6V146H949.811V78C949.811 70 945.811 66 937.811 66H884.211V146H855.211ZM1123.06 146L1058.66 2.99999H1093.46L1146.46 121H1149.06L1202.06 2.99999H1236.86L1172.46 146H1123.06ZM1247.79 146V43H1276.79V146H1247.79ZM1247.59 26V3.39999H1276.99V26H1247.59ZM1295.37 147V124H1393.37C1398.97 124 1401.77 120.867 1401.77 114.6C1401.77 108.467 1398.97 105.4 1393.37 105.4H1329.97C1318.1 105.4 1309.1 102.733 1302.97 97.4C1296.83 91.9333 1293.77 84.1333 1293.77 74C1293.77 63.7333 1296.83 55.8667 1302.97 50.4C1309.23 44.8 1318.23 42 1329.97 42H1421.17V65H1331.37C1325.63 65 1322.77 67.8 1322.77 73.4C1322.77 76.2 1323.57 78.4 1325.17 80C1326.77 81.6 1328.83 82.4 1331.37 82.4H1398.57C1408.97 82.4 1416.9 85.1333 1422.37 90.6C1427.97 95.9333 1430.77 103.733 1430.77 114C1430.77 124.4 1427.97 132.533 1422.37 138.4C1416.77 144.133 1408.83 147 1398.57 147H1295.37ZM1447.79 146V43H1476.79V146H1447.79ZM1447.59 26V3.39999H1476.99V26H1447.59ZM1551.57 147C1533.7 147 1519.77 142.6 1509.77 133.8C1499.77 124.867 1494.77 111.8 1494.77 94.6C1494.77 77.2667 1499.77 64.2 1509.77 55.4C1519.77 46.4667 1533.7 42 1551.57 42H1588.57C1606.43 42 1620.37 46.4667 1630.37 55.4C1640.37 64.2 1645.37 77.2667 1645.37 94.6C1645.37 111.8 1640.37 124.867 1630.37 133.8C1620.37 142.6 1606.43 147 1588.57 147H1551.57ZM1551.57 124H1588.57C1597.23 124 1603.83 121.6 1608.37 116.8C1613.03 112 1615.37 104.6 1615.37 94.6C1615.37 84.4667 1613.03 77 1608.37 72.2C1603.83 67.4 1597.23 65 1588.57 65H1551.57C1542.9 65 1536.23 67.4 1531.57 72.2C1527.03 77 1524.77 84.4667 1524.77 94.6C1524.77 104.6 1527.03 112 1531.57 116.8C1536.23 121.6 1542.9 124 1551.57 124ZM1663.41 146V43H1753.21C1764.95 43 1773.48 45.9333 1778.81 51.8C1784.28 57.5333 1787.01 65.1333 1787.01 74.6V146H1758.01V78C1758.01 70 1754.01 66 1746.01 66H1692.41V146H1663.41Z" fill="#EFF2F9"/>
<path d="M3 171H1797.01V181H3V171Z" fill="#EFF2F9"/>
</g>
<defs>
<filter id="filter0_ddiiii_94_209" x="-2" y="-2" width="1804.01" height="188" filterUnits="userSpaceOnUse" color-interpolation-filters="sRGB">
<feFlood flood-opacity="0" result="BackgroundImageFix"/>
<feColorMatrix in="SourceAlpha" type="matrix" values="0 0 0 0 0 0 0 0 0 0 0 0 0 0 0 0 0 0 127 0" result="hardAlpha"/>
<feOffset dx="-1" dy="-1"/>
<feGaussianBlur stdDeviation="1"/>
<feColorMatrix type="matrix" values="0 0 0 0 0.843137 0 0 0 0 0.854902 0 0 0 0 0.878431 0 0 0 0.5 0"/>
<feBlend mode="normal" in2="BackgroundImageFix" result="effect1_dropShadow_94_209"/>
<feColorMatrix in="SourceAlpha" type="matrix" values="0 0 0 0 0 0 0 0 0 0 0 0 0 0 0 0 0 0 127 0" result="hardAlpha"/>
<feOffset dx="1" dy="1"/>
<feGaussianBlur stdDeviation="1"/>
<feColorMatrix type="matrix" values="0 0 0 0 1 0 0 0 0 1 0 0 0 0 1 0 0 0 0.3 0"/>
<feBlend mode="normal" in2="effect1_dropShadow_94_209" result="effect2_dropShadow_94_209"/>
<feBlend mode="normal" in="SourceGraphic" in2="effect2_dropShadow_94_209" result="shape"/>
<feColorMatrix in="SourceAlpha" type="matrix" values="0 0 0 0 0 0 0 0 0 0 0 0 0 0 0 0 0 0 127 0" result="hardAlpha"/>
<feOffset dx="5" dy="5"/>
<feGaussianBlur stdDeviation="6.5"/>
<feComposite in2="hardAlpha" operator="arithmetic" k2="-1" k3="1"/>
<feColorMatrix type="matrix" values="0 0 0 0 0.843137 0 0 0 0 0.854902 0 0 0 0 0.878431 0 0 0 0.9 0"/>
<feBlend mode="normal" in2="shape" result="effect3_innerShadow_94_209"/>
<feColorMatrix in="SourceAlpha" type="matrix" values="0 0 0 0 0 0 0 0 0 0 0 0 0 0 0 0 0 0 127 0" result="hardAlpha"/>
<feOffset dx="-5" dy="-5"/>
<feGaussianBlur stdDeviation="5"/>
<feComposite in2="hardAlpha" operator="arithmetic" k2="-1" k3="1"/>
<feColorMatrix type="matrix" values="0 0 0 0 1 0 0 0 0 1 0 0 0 0 1 0 0 0 0.9 0"/>
<feBlend mode="normal" in2="effect3_innerShadow_94_209" result="effect4_innerShadow_94_209"/>
<feColorMatrix in="SourceAlpha" type="matrix" values="0 0 0 0 0 0 0 0 0 0 0 0 0 0 0 0 0 0 127 0" result="hardAlpha"/>
<feOffset dx="5" dy="-5"/>
<feGaussianBlur stdDeviation="5"/>
<feComposite in2="hardAlpha" operator="arithmetic" k2="-1" k3="1"/>
<feColorMatrix type="matrix" values="0 0 0 0 0.843137 0 0 0 0 0.854902 0 0 0 0 0.878431 0 0 0 0.2 0"/>
<feBlend mode="normal" in2="effect4_innerShadow_94_209" result="effect5_innerShadow_94_209"/>
<feColorMatrix in="SourceAlpha" type="matrix" values="0 0 0 0 0 0 0 0 0 0 0 0 0 0 0 0 0 0 127 0" result="hardAlpha"/>
<feOffset dx="-5" dy="5"/>
<feGaussianBlur stdDeviation="5"/>
<feComposite in2="hardAlpha" operator="arithmetic" k2="-1" k3="1"/>
<feColorMatrix type="matrix" values="0 0 0 0 0.843137 0 0 0 0 0.854902 0 0 0 0 0.878431 0 0 0 0.2 0"/>
<feBlend mode="normal" in2="effect5_innerShadow_94_209" result="effect6_innerShadow_94_209"/>
</filter>
</defs>
</svg>
