<svg width="506" height="80" viewBox="0 0 506 80" fill="none" xmlns="http://www.w3.org/2000/svg">
<g filter="url(#filter0_ddiiii_94_344)">
<rect x="3" y="3" width="500" height="74" rx="37" fill="#E9FAFF"/>
</g>
<g clip-path="url(#clip0_94_344)">
<g filter="url(#filter1_ddddii_94_344)">
<path d="M39.25 57C38.0812 57 37.0807 56.6736 36.2484 56.0208C35.4161 55.3681 35 54.5833 35 53.6667V37C35 36.0833 35.4161 35.2986 36.2484 34.6458C37.0807 33.9931 38.0812 33.6667 39.25 33.6667H41.375V30.3333C41.375 28.0278 42.4109 26.0625 44.4828 24.4375C46.5547 22.8125 49.0604 22 52 22C54.9396 22 57.4453 22.8125 59.5172 24.4375C61.5891 26.0625 62.625 28.0278 62.625 30.3333V33.6667H64.75C65.9188 33.6667 66.9193 33.9931 67.7516 34.6458C68.5839 35.2986 69 36.0833 69 37V53.6667C69 54.5833 68.5839 55.3681 67.7516 56.0208C66.9193 56.6736 65.9188 57 64.75 57H39.25ZM39.25 53.6667H64.75V37H39.25V53.6667ZM52 48.6667C53.1688 48.6667 54.1693 48.3403 55.0016 47.6875C55.8339 47.0347 56.25 46.25 56.25 45.3333C56.25 44.4167 55.8339 43.6319 55.0016 42.9792C54.1693 42.3264 53.1688 42 52 42C50.8313 42 49.8307 42.3264 48.9984 42.9792C48.1661 43.6319 47.75 44.4167 47.75 45.3333C47.75 46.25 48.1661 47.0347 48.9984 47.6875C49.8307 48.3403 50.8313 48.6667 52 48.6667ZM45.625 33.6667H58.375V30.3333C58.375 28.9444 57.7552 27.7639 56.5156 26.7917C55.276 25.8194 53.7708 25.3333 52 25.3333C50.2292 25.3333 48.724 25.8194 47.4844 26.7917C46.2448 27.7639 45.625 28.9444 45.625 30.3333V33.6667Z" fill="#AFC7FF"/>
</g>
</g>
<defs>
<filter id="filter0_ddiiii_94_344" x="0" y="0" width="506" height="80" filterUnits="userSpaceOnUse" color-interpolation-filters="sRGB">
<feFlood flood-opacity="0" result="BackgroundImageFix"/>
<feColorMatrix in="SourceAlpha" type="matrix" values="0 0 0 0 0 0 0 0 0 0 0 0 0 0 0 0 0 0 127 0" result="hardAlpha"/>
<feOffset dx="-1" dy="-1"/>
<feGaussianBlur stdDeviation="1"/>
<feColorMatrix type="matrix" values="0 0 0 0 0.858824 0 0 0 0 0.882353 0 0 0 0 0.890196 0 0 0 0.5 0"/>
<feBlend mode="normal" in2="BackgroundImageFix" result="effect1_dropShadow_94_344"/>
<feColorMatrix in="SourceAlpha" type="matrix" values="0 0 0 0 0 0 0 0 0 0 0 0 0 0 0 0 0 0 127 0" result="hardAlpha"/>
<feOffset dx="1" dy="1"/>
<feGaussianBlur stdDeviation="1"/>
<feColorMatrix type="matrix" values="0 0 0 0 1 0 0 0 0 1 0 0 0 0 1 0 0 0 0.3 0"/>
<feBlend mode="normal" in2="effect1_dropShadow_94_344" result="effect2_dropShadow_94_344"/>
<feBlend mode="normal" in="SourceGraphic" in2="effect2_dropShadow_94_344" result="shape"/>
<feColorMatrix in="SourceAlpha" type="matrix" values="0 0 0 0 0 0 0 0 0 0 0 0 0 0 0 0 0 0 127 0" result="hardAlpha"/>
<feOffset dx="1" dy="1"/>
<feGaussianBlur stdDeviation="1.5"/>
<feComposite in2="hardAlpha" operator="arithmetic" k2="-1" k3="1"/>
<feColorMatrix type="matrix" values="0 0 0 0 0.858824 0 0 0 0 0.882353 0 0 0 0 0.890196 0 0 0 0.9 0"/>
<feBlend mode="normal" in2="shape" result="effect3_innerShadow_94_344"/>
<feColorMatrix in="SourceAlpha" type="matrix" values="0 0 0 0 0 0 0 0 0 0 0 0 0 0 0 0 0 0 127 0" result="hardAlpha"/>
<feOffset dx="-1" dy="-1"/>
<feGaussianBlur stdDeviation="1"/>
<feComposite in2="hardAlpha" operator="arithmetic" k2="-1" k3="1"/>
<feColorMatrix type="matrix" values="0 0 0 0 1 0 0 0 0 1 0 0 0 0 1 0 0 0 0.9 0"/>
<feBlend mode="normal" in2="effect3_innerShadow_94_344" result="effect4_innerShadow_94_344"/>
<feColorMatrix in="SourceAlpha" type="matrix" values="0 0 0 0 0 0 0 0 0 0 0 0 0 0 0 0 0 0 127 0" result="hardAlpha"/>
<feOffset dx="1" dy="-1"/>
<feGaussianBlur stdDeviation="1"/>
<feComposite in2="hardAlpha" operator="arithmetic" k2="-1" k3="1"/>
<feColorMatrix type="matrix" values="0 0 0 0 0.858824 0 0 0 0 0.882353 0 0 0 0 0.890196 0 0 0 0.2 0"/>
<feBlend mode="normal" in2="effect4_innerShadow_94_344" result="effect5_innerShadow_94_344"/>
<feColorMatrix in="SourceAlpha" type="matrix" values="0 0 0 0 0 0 0 0 0 0 0 0 0 0 0 0 0 0 127 0" result="hardAlpha"/>
<feOffset dx="-1" dy="1"/>
<feGaussianBlur stdDeviation="1"/>
<feComposite in2="hardAlpha" operator="arithmetic" k2="-1" k3="1"/>
<feColorMatrix type="matrix" values="0 0 0 0 0.858824 0 0 0 0 0.882353 0 0 0 0 0.890196 0 0 0 0.2 0"/>
<feBlend mode="normal" in2="effect5_innerShadow_94_344" result="effect6_innerShadow_94_344"/>
</filter>
<filter id="filter1_ddddii_94_344" x="32" y="19" width="41" height="42" filterUnits="userSpaceOnUse" color-interpolation-filters="sRGB">
<feFlood flood-opacity="0" result="BackgroundImageFix"/>
<feColorMatrix in="SourceAlpha" type="matrix" values="0 0 0 0 0 0 0 0 0 0 0 0 0 0 0 0 0 0 127 0" result="hardAlpha"/>
<feOffset dx="1" dy="1"/>
<feGaussianBlur stdDeviation="1.5"/>
<feColorMatrix type="matrix" values="0 0 0 0 0.54902 0 0 0 0 0.623529 0 0 0 0 0.8 0 0 0 0.9 0"/>
<feBlend mode="normal" in2="BackgroundImageFix" result="effect1_dropShadow_94_344"/>
<feColorMatrix in="SourceAlpha" type="matrix" values="0 0 0 0 0 0 0 0 0 0 0 0 0 0 0 0 0 0 127 0" result="hardAlpha"/>
<feOffset dx="-1" dy="-1"/>
<feGaussianBlur stdDeviation="1"/>
<feColorMatrix type="matrix" values="0 0 0 0 0.823529 0 0 0 0 0.937255 0 0 0 0 1 0 0 0 0.9 0"/>
<feBlend mode="normal" in2="effect1_dropShadow_94_344" result="effect2_dropShadow_94_344"/>
<feColorMatrix in="SourceAlpha" type="matrix" values="0 0 0 0 0 0 0 0 0 0 0 0 0 0 0 0 0 0 127 0" result="hardAlpha"/>
<feOffset dx="1" dy="-1"/>
<feGaussianBlur stdDeviation="1"/>
<feColorMatrix type="matrix" values="0 0 0 0 0.54902 0 0 0 0 0.623529 0 0 0 0 0.8 0 0 0 0.2 0"/>
<feBlend mode="normal" in2="effect2_dropShadow_94_344" result="effect3_dropShadow_94_344"/>
<feColorMatrix in="SourceAlpha" type="matrix" values="0 0 0 0 0 0 0 0 0 0 0 0 0 0 0 0 0 0 127 0" result="hardAlpha"/>
<feOffset dx="-1" dy="1"/>
<feGaussianBlur stdDeviation="1"/>
<feColorMatrix type="matrix" values="0 0 0 0 0.54902 0 0 0 0 0.623529 0 0 0 0 0.8 0 0 0 0.2 0"/>
<feBlend mode="normal" in2="effect3_dropShadow_94_344" result="effect4_dropShadow_94_344"/>
<feBlend mode="normal" in="SourceGraphic" in2="effect4_dropShadow_94_344" result="shape"/>
<feColorMatrix in="SourceAlpha" type="matrix" values="0 0 0 0 0 0 0 0 0 0 0 0 0 0 0 0 0 0 127 0" result="hardAlpha"/>
<feOffset dx="-1" dy="-1"/>
<feGaussianBlur stdDeviation="1"/>
<feComposite in2="hardAlpha" operator="arithmetic" k2="-1" k3="1"/>
<feColorMatrix type="matrix" values="0 0 0 0 0.54902 0 0 0 0 0.623529 0 0 0 0 0.8 0 0 0 0.5 0"/>
<feBlend mode="normal" in2="shape" result="effect5_innerShadow_94_344"/>
<feColorMatrix in="SourceAlpha" type="matrix" values="0 0 0 0 0 0 0 0 0 0 0 0 0 0 0 0 0 0 127 0" result="hardAlpha"/>
<feOffset dx="1" dy="1"/>
<feGaussianBlur stdDeviation="1"/>
<feComposite in2="hardAlpha" operator="arithmetic" k2="-1" k3="1"/>
<feColorMatrix type="matrix" values="0 0 0 0 0.823529 0 0 0 0 0.937255 0 0 0 0 1 0 0 0 0.3 0"/>
<feBlend mode="normal" in2="effect5_innerShadow_94_344" result="effect6_innerShadow_94_344"/>
</filter>
<clipPath id="clip0_94_344">
<rect width="50" height="50" fill="white" transform="translate(27 15)"/>
</clipPath>
</defs>
</svg>
