<svg width="433" height="170" viewBox="0 0 433 170" fill="none" xmlns="http://www.w3.org/2000/svg">
<g opacity="0.5" filter="url(#filter0_ddddii_100_98)">
<path fill-rule="evenodd" clip-rule="evenodd" d="M188.232 8.00001C188.232 5.23858 190.471 3 193.232 3H253.5C260.128 3 265.5 8.37258 265.5 15V70.6463C265.5 73.96 262.814 76.6463 259.5 76.6463H253.427V78.6829C253.427 80.8921 251.636 82.6829 249.427 82.6829H242.561V86.1341C242.561 88.8956 240.322 91.1341 237.561 91.1341H176.5C170.977 91.1341 166.5 86.657 166.5 81.1341V27.1098C166.5 23.796 169.186 21.1098 172.5 21.1098H178.573V15.4512C178.573 13.2421 180.364 11.4512 182.573 11.4512H188.232V8.00001ZM188.232 13.8659H184.988C182.779 13.8659 180.988 15.6568 180.988 17.8659V21.1098H188.232V13.8659ZM189.439 21.1098V13.8659H242.012C246.983 13.8659 251.012 17.8953 251.012 22.8659V75.439H242.561V31.1098C242.561 25.5869 238.084 21.1098 232.561 21.1098H189.439ZM188.232 24.7316H180.988V71.2683C180.988 76.2389 185.017 80.2683 189.988 80.2683H238.939V76.6463H199.232C193.157 76.6463 188.232 71.7215 188.232 65.6463V24.7316ZM238.939 75.439H200.439C194.364 75.439 189.439 70.5142 189.439 64.439V24.7316H228.939C234.462 24.7316 238.939 29.2088 238.939 34.7316V75.439ZM242.561 76.6463V80.2683H247.012C249.094 80.2683 250.804 78.6782 250.994 76.6463H242.561ZM253.427 75.439V20.4512C253.427 15.4807 249.397 11.4512 244.427 11.4512H189.439V9.20732C189.439 6.44589 191.678 4.20732 194.439 4.20732H252.293C258.92 4.20732 264.293 9.5799 264.293 16.2073V69.439C264.293 72.7527 261.607 75.439 258.293 75.439H253.427ZM176.122 24.7316H178.573V73.6829C178.573 78.6535 182.603 82.6829 187.573 82.6829H238.936C238.846 85.3652 236.643 87.5121 233.939 87.5121H180.122C174.599 87.5121 170.122 83.0349 170.122 77.5121V30.7316C170.122 27.4179 172.808 24.7316 176.122 24.7316Z" fill="#AFC7FF"/>
</g>
<g filter="url(#filter1_ddddii_100_98)">
<path d="M3.86 156.134V121.814H11.54V135.878H35.732V121.814H43.412V156.134H35.732V142.118H11.54V156.134H3.86ZM62.0776 156.374C57.7896 156.374 54.4456 155.318 52.0456 153.206C49.6456 151.062 48.4456 147.926 48.4456 143.798C48.4456 139.638 49.6456 136.502 52.0456 134.39C54.4456 132.246 57.7896 131.174 62.0776 131.174H70.9576C75.2456 131.174 78.5896 132.246 80.9896 134.39C83.3896 136.502 84.5896 139.638 84.5896 143.798C84.5896 147.926 83.3896 151.062 80.9896 153.206C78.5896 155.318 75.2456 156.374 70.9576 156.374H62.0776ZM62.0776 150.854H70.9576C73.0376 150.854 74.6216 150.278 75.7096 149.126C76.8296 147.974 77.3896 146.198 77.3896 143.798C77.3896 141.366 76.8296 139.574 75.7096 138.422C74.6216 137.27 73.0376 136.694 70.9576 136.694H62.0776C59.9976 136.694 58.3976 137.27 57.2776 138.422C56.1896 139.574 55.6456 141.366 55.6456 143.798C55.6456 146.198 56.1896 147.974 57.2776 149.126C58.3976 150.278 59.9976 150.854 62.0776 150.854ZM88.9213 156.134V131.414H107.833C110.617 131.414 112.665 132.118 113.977 133.526C115.289 134.902 115.945 136.726 115.945 138.998V144.134H108.889V139.862C108.889 137.942 107.929 136.982 106.009 136.982H95.9773V156.134H88.9213ZM119.765 156.134V131.414H126.725V156.134H119.765ZM119.717 127.334V121.91H126.773V127.334H119.717ZM131.279 156.134V151.046L150.767 136.934H132.095V131.414H160.943V136.502L141.455 150.614H160.943V156.134H131.279ZM178.187 156.374C173.899 156.374 170.555 155.318 168.155 153.206C165.755 151.062 164.555 147.926 164.555 143.798C164.555 139.638 165.755 136.502 168.155 134.39C170.555 132.246 173.899 131.174 178.187 131.174H187.067C191.355 131.174 194.699 132.246 197.099 134.39C199.499 136.502 200.699 139.638 200.699 143.798C200.699 147.926 199.499 151.062 197.099 153.206C194.699 155.318 191.355 156.374 187.067 156.374H178.187ZM178.187 150.854H187.067C189.147 150.854 190.731 150.278 191.819 149.126C192.939 147.974 193.499 146.198 193.499 143.798C193.499 141.366 192.939 139.574 191.819 138.422C190.731 137.27 189.147 136.694 187.067 136.694H178.187C176.107 136.694 174.507 137.27 173.387 138.422C172.299 139.574 171.755 141.366 171.755 143.798C171.755 146.198 172.299 147.974 173.387 149.126C174.507 150.278 176.107 150.854 178.187 150.854ZM205.031 156.134V131.414H226.583C229.399 131.414 231.447 132.118 232.727 133.526C234.039 134.902 234.695 136.726 234.695 138.998V156.134H227.735V139.814C227.735 137.894 226.775 136.934 224.855 136.934H211.991V156.134H205.031ZM269.315 156.134L253.859 121.814H262.211L274.931 150.134H275.555L288.275 121.814H296.627L281.171 156.134H269.315ZM299.249 156.134V131.414H306.209V156.134H299.249ZM299.201 127.334V121.91H306.257V127.334H299.201ZM310.668 156.374V150.854H334.188C335.532 150.854 336.204 150.102 336.204 148.598C336.204 147.126 335.532 146.39 334.188 146.39H318.972C316.124 146.39 313.964 145.75 312.492 144.47C311.02 143.158 310.284 141.286 310.284 138.854C310.284 136.39 311.02 134.502 312.492 133.19C313.996 131.846 316.156 131.174 318.972 131.174H340.86V136.694H319.308C317.932 136.694 317.244 137.366 317.244 138.71C317.244 139.382 317.436 139.91 317.82 140.294C318.204 140.678 318.7 140.87 319.308 140.87H335.436C337.932 140.87 339.836 141.526 341.148 142.838C342.492 144.118 343.164 145.99 343.164 148.454C343.164 150.95 342.492 152.902 341.148 154.31C339.804 155.686 337.9 156.374 335.436 156.374H310.668ZM347.249 156.134V131.414H354.209V156.134H347.249ZM347.201 127.334V121.91H354.257V127.334H347.201ZM372.156 156.374C367.868 156.374 364.524 155.318 362.124 153.206C359.724 151.062 358.524 147.926 358.524 143.798C358.524 139.638 359.724 136.502 362.124 134.39C364.524 132.246 367.868 131.174 372.156 131.174H381.036C385.324 131.174 388.668 132.246 391.068 134.39C393.468 136.502 394.668 139.638 394.668 143.798C394.668 147.926 393.468 151.062 391.068 153.206C388.668 155.318 385.324 156.374 381.036 156.374H372.156ZM372.156 150.854H381.036C383.116 150.854 384.7 150.278 385.788 149.126C386.908 147.974 387.468 146.198 387.468 143.798C387.468 141.366 386.908 139.574 385.788 138.422C384.7 137.27 383.116 136.694 381.036 136.694H372.156C370.076 136.694 368.476 137.27 367.356 138.422C366.268 139.574 365.724 141.366 365.724 143.798C365.724 146.198 366.268 147.974 367.356 149.126C368.476 150.278 370.076 150.854 372.156 150.854ZM398.999 156.134V131.414H420.551C423.367 131.414 425.415 132.118 426.695 133.526C428.007 134.902 428.663 136.726 428.663 138.998V156.134H421.703V139.814C421.703 137.894 420.743 136.934 418.823 136.934H405.959V156.134H398.999Z" fill="#AFC7FF"/>
</g>
<defs>
<filter id="filter0_ddddii_100_98" x="163.5" y="0" width="106" height="95.134" filterUnits="userSpaceOnUse" color-interpolation-filters="sRGB">
<feFlood flood-opacity="0" result="BackgroundImageFix"/>
<feColorMatrix in="SourceAlpha" type="matrix" values="0 0 0 0 0 0 0 0 0 0 0 0 0 0 0 0 0 0 127 0" result="hardAlpha"/>
<feOffset dx="1" dy="1"/>
<feGaussianBlur stdDeviation="1.5"/>
<feColorMatrix type="matrix" values="0 0 0 0 0.376471 0 0 0 0 0.427451 0 0 0 0 0.54902 0 0 0 0.9 0"/>
<feBlend mode="normal" in2="BackgroundImageFix" result="effect1_dropShadow_100_98"/>
<feColorMatrix in="SourceAlpha" type="matrix" values="0 0 0 0 0 0 0 0 0 0 0 0 0 0 0 0 0 0 127 0" result="hardAlpha"/>
<feOffset dx="-1" dy="-1"/>
<feGaussianBlur stdDeviation="1"/>
<feColorMatrix type="matrix" values="0 0 0 0 0.996078 0 0 0 0 1 0 0 0 0 1 0 0 0 0.9 0"/>
<feBlend mode="normal" in2="effect1_dropShadow_100_98" result="effect2_dropShadow_100_98"/>
<feColorMatrix in="SourceAlpha" type="matrix" values="0 0 0 0 0 0 0 0 0 0 0 0 0 0 0 0 0 0 127 0" result="hardAlpha"/>
<feOffset dx="1" dy="-1"/>
<feGaussianBlur stdDeviation="1"/>
<feColorMatrix type="matrix" values="0 0 0 0 0.376471 0 0 0 0 0.427451 0 0 0 0 0.54902 0 0 0 0.2 0"/>
<feBlend mode="normal" in2="effect2_dropShadow_100_98" result="effect3_dropShadow_100_98"/>
<feColorMatrix in="SourceAlpha" type="matrix" values="0 0 0 0 0 0 0 0 0 0 0 0 0 0 0 0 0 0 127 0" result="hardAlpha"/>
<feOffset dx="-1" dy="1"/>
<feGaussianBlur stdDeviation="1"/>
<feColorMatrix type="matrix" values="0 0 0 0 0.376471 0 0 0 0 0.427451 0 0 0 0 0.54902 0 0 0 0.2 0"/>
<feBlend mode="normal" in2="effect3_dropShadow_100_98" result="effect4_dropShadow_100_98"/>
<feBlend mode="normal" in="SourceGraphic" in2="effect4_dropShadow_100_98" result="shape"/>
<feColorMatrix in="SourceAlpha" type="matrix" values="0 0 0 0 0 0 0 0 0 0 0 0 0 0 0 0 0 0 127 0" result="hardAlpha"/>
<feOffset dx="-1" dy="-1"/>
<feGaussianBlur stdDeviation="1"/>
<feComposite in2="hardAlpha" operator="arithmetic" k2="-1" k3="1"/>
<feColorMatrix type="matrix" values="0 0 0 0 0.376471 0 0 0 0 0.427451 0 0 0 0 0.54902 0 0 0 0.5 0"/>
<feBlend mode="normal" in2="shape" result="effect5_innerShadow_100_98"/>
<feColorMatrix in="SourceAlpha" type="matrix" values="0 0 0 0 0 0 0 0 0 0 0 0 0 0 0 0 0 0 127 0" result="hardAlpha"/>
<feOffset dx="1" dy="1"/>
<feGaussianBlur stdDeviation="1"/>
<feComposite in2="hardAlpha" operator="arithmetic" k2="-1" k3="1"/>
<feColorMatrix type="matrix" values="0 0 0 0 0.996078 0 0 0 0 1 0 0 0 0 1 0 0 0 0.3 0"/>
<feBlend mode="normal" in2="effect5_innerShadow_100_98" result="effect6_innerShadow_100_98"/>
</filter>
<filter id="filter1_ddddii_100_98" x="0.860352" y="118.814" width="431.803" height="41.5601" filterUnits="userSpaceOnUse" color-interpolation-filters="sRGB">
<feFlood flood-opacity="0" result="BackgroundImageFix"/>
<feColorMatrix in="SourceAlpha" type="matrix" values="0 0 0 0 0 0 0 0 0 0 0 0 0 0 0 0 0 0 127 0" result="hardAlpha"/>
<feOffset dx="1" dy="1"/>
<feGaussianBlur stdDeviation="1.5"/>
<feColorMatrix type="matrix" values="0 0 0 0 0.54902 0 0 0 0 0.623529 0 0 0 0 0.8 0 0 0 0.9 0"/>
<feBlend mode="normal" in2="BackgroundImageFix" result="effect1_dropShadow_100_98"/>
<feColorMatrix in="SourceAlpha" type="matrix" values="0 0 0 0 0 0 0 0 0 0 0 0 0 0 0 0 0 0 127 0" result="hardAlpha"/>
<feOffset dx="-1" dy="-1"/>
<feGaussianBlur stdDeviation="1"/>
<feColorMatrix type="matrix" values="0 0 0 0 0.823529 0 0 0 0 0.937255 0 0 0 0 1 0 0 0 0.9 0"/>
<feBlend mode="normal" in2="effect1_dropShadow_100_98" result="effect2_dropShadow_100_98"/>
<feColorMatrix in="SourceAlpha" type="matrix" values="0 0 0 0 0 0 0 0 0 0 0 0 0 0 0 0 0 0 127 0" result="hardAlpha"/>
<feOffset dx="1" dy="-1"/>
<feGaussianBlur stdDeviation="1"/>
<feColorMatrix type="matrix" values="0 0 0 0 0.54902 0 0 0 0 0.623529 0 0 0 0 0.8 0 0 0 0.2 0"/>
<feBlend mode="normal" in2="effect2_dropShadow_100_98" result="effect3_dropShadow_100_98"/>
<feColorMatrix in="SourceAlpha" type="matrix" values="0 0 0 0 0 0 0 0 0 0 0 0 0 0 0 0 0 0 127 0" result="hardAlpha"/>
<feOffset dx="-1" dy="1"/>
<feGaussianBlur stdDeviation="1"/>
<feColorMatrix type="matrix" values="0 0 0 0 0.54902 0 0 0 0 0.623529 0 0 0 0 0.8 0 0 0 0.2 0"/>
<feBlend mode="normal" in2="effect3_dropShadow_100_98" result="effect4_dropShadow_100_98"/>
<feBlend mode="normal" in="SourceGraphic" in2="effect4_dropShadow_100_98" result="shape"/>
<feColorMatrix in="SourceAlpha" type="matrix" values="0 0 0 0 0 0 0 0 0 0 0 0 0 0 0 0 0 0 127 0" result="hardAlpha"/>
<feOffset dx="-1" dy="-1"/>
<feGaussianBlur stdDeviation="1"/>
<feComposite in2="hardAlpha" operator="arithmetic" k2="-1" k3="1"/>
<feColorMatrix type="matrix" values="0 0 0 0 0.54902 0 0 0 0 0.623529 0 0 0 0 0.8 0 0 0 0.5 0"/>
<feBlend mode="normal" in2="shape" result="effect5_innerShadow_100_98"/>
<feColorMatrix in="SourceAlpha" type="matrix" values="0 0 0 0 0 0 0 0 0 0 0 0 0 0 0 0 0 0 127 0" result="hardAlpha"/>
<feOffset dx="1" dy="1"/>
<feGaussianBlur stdDeviation="1"/>
<feComposite in2="hardAlpha" operator="arithmetic" k2="-1" k3="1"/>
<feColorMatrix type="matrix" values="0 0 0 0 0.823529 0 0 0 0 0.937255 0 0 0 0 1 0 0 0 0.3 0"/>
<feBlend mode="normal" in2="effect5_innerShadow_100_98" result="effect6_innerShadow_100_98"/>
</filter>
</defs>
</svg>
