<svg width="130" height="130" viewBox="0 0 130 130" fill="none" xmlns="http://www.w3.org/2000/svg">
<g filter="url(#filter0_dd_120_433)">
<circle cx="65" cy="65" r="50" fill="#EFF2F9"/>
</g>
<path d="M59 57.75C59 58.9435 58.5259 60.088 57.682 60.932C56.838 61.7759 55.6935 62.25 54.5 62.25C53.3065 62.25 52.1619 61.7759 51.318 60.932C50.4741 60.088 50 58.9435 50 57.75C50 56.5565 50.4741 55.4119 51.318 54.568C52.1619 53.7241 53.3065 53.25 54.5 53.25C55.6935 53.25 56.838 53.7241 57.682 54.568C58.5259 55.4119 59 56.5565 59 57.75Z" fill="#AFC7FF"/>
<path d="M47 44.25C45.4087 44.25 43.8826 44.8821 42.7574 46.0074C41.6321 47.1326 41 48.6587 41 50.25V80.2499C41 81.8412 41.6321 83.3673 42.7574 84.4925C43.8826 85.6177 45.4087 86.2499 47 86.2499H82.9999C84.5912 86.2499 86.1173 85.6177 87.2425 84.4925C88.3677 83.3673 88.9999 81.8412 88.9999 80.2499V50.25C88.9999 48.6587 88.3677 47.1326 87.2425 46.0074C86.1173 44.8821 84.5912 44.25 82.9999 44.25H47ZM82.9999 47.25C83.7955 47.25 84.5586 47.5661 85.1212 48.1287C85.6838 48.6913 85.9999 49.4543 85.9999 50.25V69.7499L74.6689 63.9089C74.3876 63.768 74.069 63.7191 73.7584 63.7692C73.4478 63.8193 73.1607 63.9658 72.9379 64.1879L61.8079 75.3179L53.828 70.0019C53.5398 69.8101 53.1943 69.7238 52.8498 69.7577C52.5053 69.7916 52.1832 69.9436 51.938 70.1879L44 77.2499V50.25C44 49.4543 44.3161 48.6913 44.8787 48.1287C45.4413 47.5661 46.2043 47.25 47 47.25H82.9999Z" fill="#AFC7FF"/>
<path d="M83 78.5V79H83.5H88.5C89.0304 79 89.5391 79.2107 89.9142 79.5858C90.2893 79.9609 90.5 80.4696 90.5 81C90.5 81.5304 90.2893 82.0391 89.9142 82.4142C89.5401 82.7883 89.0331 82.9989 88.5042 83L83.5089 82.9113L83 82.9023V83.4113V88.5C83 89.0304 82.7893 89.5391 82.4142 89.9142C82.0391 90.2893 81.5304 90.5 81 90.5C80.4696 90.5 79.9609 90.2893 79.5858 89.9142C79.2117 89.5401 79.0011 89.0331 79 88.5041L79.0887 83.42L79.0977 82.9023L78.58 82.9113L73.4959 83C72.9669 82.9989 72.4599 82.7883 72.0858 82.4142C71.7107 82.0391 71.5 81.5304 71.5 81C71.5 80.4696 71.7107 79.9609 72.0858 79.5858C72.4609 79.2107 72.9696 79 73.5 79H78.5888H79.0977L79.0887 78.4911L79 73.4958C79.0011 72.9669 79.2117 72.4599 79.5858 72.0858C79.9609 71.7107 80.4696 71.5 81 71.5C81.5304 71.5 82.0391 71.7107 82.4142 72.0858C82.7893 72.4609 83 72.9696 83 73.5V78.5Z" fill="#AFC7FF" stroke="#EFF2F9"/>
<defs>
<filter id="filter0_dd_120_433" x="0" y="0" width="130" height="130" filterUnits="userSpaceOnUse" color-interpolation-filters="sRGB">
<feFlood flood-opacity="0" result="BackgroundImageFix"/>
<feColorMatrix in="SourceAlpha" type="matrix" values="0 0 0 0 0 0 0 0 0 0 0 0 0 0 0 0 0 0 127 0" result="hardAlpha"/>
<feOffset dx="5" dy="5"/>
<feGaussianBlur stdDeviation="5"/>
<feComposite in2="hardAlpha" operator="out"/>
<feColorMatrix type="matrix" values="0 0 0 0 0.0862745 0 0 0 0 0.105882 0 0 0 0 0.113725 0 0 0 0.23 0"/>
<feBlend mode="normal" in2="BackgroundImageFix" result="effect1_dropShadow_120_433"/>
<feColorMatrix in="SourceAlpha" type="matrix" values="0 0 0 0 0 0 0 0 0 0 0 0 0 0 0 0 0 0 127 0" result="hardAlpha"/>
<feOffset dx="-5" dy="-5"/>
<feGaussianBlur stdDeviation="5"/>
<feComposite in2="hardAlpha" operator="out"/>
<feColorMatrix type="matrix" values="0 0 0 0 0.980392 0 0 0 0 0.984314 0 0 0 0 1 0 0 0 1 0"/>
<feBlend mode="normal" in2="effect1_dropShadow_120_433" result="effect2_dropShadow_120_433"/>
<feBlend mode="normal" in="SourceGraphic" in2="effect2_dropShadow_120_433" result="shape"/>
</filter>
</defs>
</svg>
