<svg width="1140" height="99" viewBox="0 0 1140 99" fill="none" xmlns="http://www.w3.org/2000/svg">
<g filter="url(#filter0_ddiiii_2_15)">
<path d="M3.96 95V3.48H24.44V40.984H88.952V3.48H109.432V95H88.952V57.624H24.44V95H3.96ZM159.207 95.64C147.772 95.64 138.855 92.824 132.455 87.192C126.055 81.4747 122.855 73.112 122.855 62.104C122.855 51.0107 126.055 42.648 132.455 37.016C138.855 31.2987 147.772 28.44 159.207 28.44H182.887C194.322 28.44 203.239 31.2987 209.639 37.016C216.039 42.648 219.239 51.0107 219.239 62.104C219.239 73.112 216.039 81.4747 209.639 87.192C203.239 92.824 194.322 95.64 182.887 95.64H159.207ZM159.207 80.92H182.887C188.434 80.92 192.658 79.384 195.559 76.312C198.546 73.24 200.039 68.504 200.039 62.104C200.039 55.6187 198.546 50.84 195.559 47.768C192.658 44.696 188.434 43.16 182.887 43.16H159.207C153.66 43.16 149.394 44.696 146.407 47.768C143.506 50.84 142.055 55.6187 142.055 62.104C142.055 68.504 143.506 73.24 146.407 76.312C149.394 79.384 153.66 80.92 159.207 80.92ZM230.79 95V29.08H281.222C288.646 29.08 294.107 30.9573 297.606 34.712C301.105 38.3813 302.854 43.2453 302.854 49.304V63H284.038V51.608C284.038 46.488 281.478 43.928 276.358 43.928H249.606V95H230.79ZM313.04 95V29.08H331.6V95H313.04ZM312.912 18.2V3.73599H331.728V18.2H312.912ZM343.745 95V81.432L395.713 43.8H345.921V29.08H422.849V42.648L370.881 80.28H422.849V95H343.745ZM468.832 95.64C457.397 95.64 448.48 92.824 442.08 87.192C435.68 81.4747 432.48 73.112 432.48 62.104C432.48 51.0107 435.68 42.648 442.08 37.016C448.48 31.2987 457.397 28.44 468.832 28.44H492.512C503.947 28.44 512.864 31.2987 519.264 37.016C525.664 42.648 528.864 51.0107 528.864 62.104C528.864 73.112 525.664 81.4747 519.264 87.192C512.864 92.824 503.947 95.64 492.512 95.64H468.832ZM468.832 80.92H492.512C498.059 80.92 502.283 79.384 505.184 76.312C508.171 73.24 509.664 68.504 509.664 62.104C509.664 55.6187 508.171 50.84 505.184 47.768C502.283 44.696 498.059 43.16 492.512 43.16H468.832C463.285 43.16 459.019 44.696 456.032 47.768C453.131 50.84 451.68 55.6187 451.68 62.104C451.68 68.504 453.131 73.24 456.032 76.312C459.019 79.384 463.285 80.92 468.832 80.92ZM540.415 95V29.08H597.887C605.396 29.08 610.858 30.9573 614.271 34.712C617.77 38.3813 619.519 43.2453 619.519 49.304V95H600.959V51.48C600.959 46.36 598.399 43.8 593.279 43.8H558.975V95H540.415ZM711.841 95L670.625 3.48H692.897L726.817 79H728.481L762.401 3.48H784.673L743.457 95H711.841ZM791.665 95V29.08H810.225V95H791.665ZM791.537 18.2V3.73599H810.353V18.2H791.537ZM822.114 95.64V80.92H884.834C888.418 80.92 890.21 78.9147 890.21 74.904C890.21 70.9787 888.418 69.016 884.834 69.016H844.258C836.663 69.016 830.903 67.3093 826.978 63.896C823.053 60.3973 821.09 55.4053 821.09 48.92C821.09 42.3493 823.053 37.3147 826.978 33.816C830.989 30.232 836.749 28.44 844.258 28.44H902.626V43.16H845.154C841.485 43.16 839.65 44.952 839.65 48.536C839.65 50.328 840.162 51.736 841.186 52.76C842.21 53.784 843.533 54.296 845.154 54.296H888.162C894.818 54.296 899.895 56.0453 903.394 59.544C906.978 62.9573 908.77 67.9493 908.77 74.52C908.77 81.176 906.978 86.3813 903.394 90.136C899.81 93.8053 894.733 95.64 888.162 95.64H822.114ZM919.665 95V29.08H938.225V95H919.665ZM919.537 18.2V3.73599H938.353V18.2H919.537ZM986.082 95.64C974.647 95.64 965.73 92.824 959.33 87.192C952.93 81.4747 949.73 73.112 949.73 62.104C949.73 51.0107 952.93 42.648 959.33 37.016C965.73 31.2987 974.647 28.44 986.082 28.44H1009.76C1021.2 28.44 1030.11 31.2987 1036.51 37.016C1042.91 42.648 1046.11 51.0107 1046.11 62.104C1046.11 73.112 1042.91 81.4747 1036.51 87.192C1030.11 92.824 1021.2 95.64 1009.76 95.64H986.082ZM986.082 80.92H1009.76C1015.31 80.92 1019.53 79.384 1022.43 76.312C1025.42 73.24 1026.91 68.504 1026.91 62.104C1026.91 55.6187 1025.42 50.84 1022.43 47.768C1019.53 44.696 1015.31 43.16 1009.76 43.16H986.082C980.535 43.16 976.269 44.696 973.282 47.768C970.381 50.84 968.93 55.6187 968.93 62.104C968.93 68.504 970.381 73.24 973.282 76.312C976.269 79.384 980.535 80.92 986.082 80.92ZM1057.67 95V29.08H1115.14C1122.65 29.08 1128.11 30.9573 1131.52 34.712C1135.02 38.3813 1136.77 43.2453 1136.77 49.304V95H1118.21V51.48C1118.21 46.36 1115.65 43.8 1110.53 43.8H1076.23V95H1057.67Z" fill="#EFF2F9"/>
</g>
<defs>
<filter id="filter0_ddiiii_2_15" x="-1.04004" y="-1.52002" width="1142.81" height="102.16" filterUnits="userSpaceOnUse" color-interpolation-filters="sRGB">
<feFlood flood-opacity="0" result="BackgroundImageFix"/>
<feColorMatrix in="SourceAlpha" type="matrix" values="0 0 0 0 0 0 0 0 0 0 0 0 0 0 0 0 0 0 127 0" result="hardAlpha"/>
<feOffset dx="-1" dy="-1"/>
<feGaussianBlur stdDeviation="1"/>
<feColorMatrix type="matrix" values="0 0 0 0 0.843137 0 0 0 0 0.854902 0 0 0 0 0.878431 0 0 0 0.5 0"/>
<feBlend mode="normal" in2="BackgroundImageFix" result="effect1_dropShadow_2_15"/>
<feColorMatrix in="SourceAlpha" type="matrix" values="0 0 0 0 0 0 0 0 0 0 0 0 0 0 0 0 0 0 127 0" result="hardAlpha"/>
<feOffset dx="1" dy="1"/>
<feGaussianBlur stdDeviation="1"/>
<feColorMatrix type="matrix" values="0 0 0 0 1 0 0 0 0 1 0 0 0 0 1 0 0 0 0.3 0"/>
<feBlend mode="normal" in2="effect1_dropShadow_2_15" result="effect2_dropShadow_2_15"/>
<feBlend mode="normal" in="SourceGraphic" in2="effect2_dropShadow_2_15" result="shape"/>
<feColorMatrix in="SourceAlpha" type="matrix" values="0 0 0 0 0 0 0 0 0 0 0 0 0 0 0 0 0 0 127 0" result="hardAlpha"/>
<feOffset dx="5" dy="5"/>
<feGaussianBlur stdDeviation="6.5"/>
<feComposite in2="hardAlpha" operator="arithmetic" k2="-1" k3="1"/>
<feColorMatrix type="matrix" values="0 0 0 0 0.843137 0 0 0 0 0.854902 0 0 0 0 0.878431 0 0 0 0.9 0"/>
<feBlend mode="normal" in2="shape" result="effect3_innerShadow_2_15"/>
<feColorMatrix in="SourceAlpha" type="matrix" values="0 0 0 0 0 0 0 0 0 0 0 0 0 0 0 0 0 0 127 0" result="hardAlpha"/>
<feOffset dx="-5" dy="-5"/>
<feGaussianBlur stdDeviation="5"/>
<feComposite in2="hardAlpha" operator="arithmetic" k2="-1" k3="1"/>
<feColorMatrix type="matrix" values="0 0 0 0 1 0 0 0 0 1 0 0 0 0 1 0 0 0 0.9 0"/>
<feBlend mode="normal" in2="effect3_innerShadow_2_15" result="effect4_innerShadow_2_15"/>
<feColorMatrix in="SourceAlpha" type="matrix" values="0 0 0 0 0 0 0 0 0 0 0 0 0 0 0 0 0 0 127 0" result="hardAlpha"/>
<feOffset dx="5" dy="-5"/>
<feGaussianBlur stdDeviation="5"/>
<feComposite in2="hardAlpha" operator="arithmetic" k2="-1" k3="1"/>
<feColorMatrix type="matrix" values="0 0 0 0 0.843137 0 0 0 0 0.854902 0 0 0 0 0.878431 0 0 0 0.2 0"/>
<feBlend mode="normal" in2="effect4_innerShadow_2_15" result="effect5_innerShadow_2_15"/>
<feColorMatrix in="SourceAlpha" type="matrix" values="0 0 0 0 0 0 0 0 0 0 0 0 0 0 0 0 0 0 127 0" result="hardAlpha"/>
<feOffset dx="-5" dy="5"/>
<feGaussianBlur stdDeviation="5"/>
<feComposite in2="hardAlpha" operator="arithmetic" k2="-1" k3="1"/>
<feColorMatrix type="matrix" values="0 0 0 0 0.843137 0 0 0 0 0.854902 0 0 0 0 0.878431 0 0 0 0.2 0"/>
<feBlend mode="normal" in2="effect5_innerShadow_2_15" result="effect6_innerShadow_2_15"/>
</filter>
</defs>
</svg>
