<svg width="105" height="105" viewBox="0 0 105 105" fill="none" xmlns="http://www.w3.org/2000/svg">
<g filter="url(#filter0_dd_104_242)">
<circle cx="52.5" cy="52.5" r="37.5" fill="#EFF2F9"/>
</g>
<path d="M38.25 50.75V38.25H50.75V50.75H38.25ZM41.375 47.625H47.625V41.375H41.375V47.625ZM38.25 66.375V53.875H50.75V66.375H38.25ZM41.375 63.25H47.625V57H41.375V63.25ZM53.875 50.75V38.25H66.375V50.75H53.875ZM57 47.625H63.25V41.375H57V47.625ZM63.25 66.375V63.25H66.375V66.375H63.25ZM53.875 57V53.875H57V57H53.875ZM57 60.125V57H60.125V60.125H57ZM53.875 63.25V60.125H57V63.25H53.875ZM57 66.375V63.25H60.125V66.375H57ZM60.125 63.25V60.125H63.25V63.25H60.125ZM60.125 57V53.875H63.25V57H60.125ZM63.25 60.125V57H66.375V60.125H63.25Z" fill="#AFC7FF"/>
<path d="M44.3536 74.0556L52.9268 65.4823L53.085 65.3241L52.9452 65.1494C52.4082 64.4781 51.9813 63.7041 51.6659 62.8253C51.3521 61.9512 51.1944 61.0193 51.1944 60.0278C51.1944 57.5694 52.043 55.498 53.7427 53.7983C55.4425 52.0986 57.5138 51.25 59.9722 51.25C62.4306 51.25 64.502 52.0986 66.2017 53.7983C67.9014 55.498 68.75 57.5694 68.75 60.0278C68.75 62.4862 67.9014 64.5575 66.2017 66.2573C64.502 67.957 62.4306 68.8056 59.9722 68.8056C58.9807 68.8056 58.0488 68.6479 57.1747 68.3341C56.2959 68.0187 55.5219 67.5918 54.8506 67.0548L54.6759 66.915L54.5177 67.0732L45.9444 75.6464L44.3536 74.0556ZM53.4722 60.0278C53.4722 61.8294 54.1057 63.3689 55.3684 64.6316C56.6311 65.8943 58.1706 66.5278 59.9722 66.5278C61.7739 66.5278 63.3134 65.8943 64.5761 64.6316C65.8388 63.3689 66.4722 61.8294 66.4722 60.0278C66.4722 58.2261 65.8388 56.6866 64.5761 55.4239C63.3134 54.1612 61.7739 53.5278 59.9722 53.5278C58.1706 53.5278 56.6311 54.1612 55.3684 55.4239C54.1057 56.6866 53.4722 58.2261 53.4722 60.0278Z" fill="#AFC7FF" stroke="#EFF2F9" stroke-width="0.5"/>
<defs>
<filter id="filter0_dd_104_242" x="0" y="0" width="105" height="105" filterUnits="userSpaceOnUse" color-interpolation-filters="sRGB">
<feFlood flood-opacity="0" result="BackgroundImageFix"/>
<feColorMatrix in="SourceAlpha" type="matrix" values="0 0 0 0 0 0 0 0 0 0 0 0 0 0 0 0 0 0 127 0" result="hardAlpha"/>
<feOffset dx="5" dy="5"/>
<feGaussianBlur stdDeviation="5"/>
<feComposite in2="hardAlpha" operator="out"/>
<feColorMatrix type="matrix" values="0 0 0 0 0.0862745 0 0 0 0 0.105882 0 0 0 0 0.113725 0 0 0 0.23 0"/>
<feBlend mode="normal" in2="BackgroundImageFix" result="effect1_dropShadow_104_242"/>
<feColorMatrix in="SourceAlpha" type="matrix" values="0 0 0 0 0 0 0 0 0 0 0 0 0 0 0 0 0 0 127 0" result="hardAlpha"/>
<feOffset dx="-5" dy="-5"/>
<feGaussianBlur stdDeviation="5"/>
<feComposite in2="hardAlpha" operator="out"/>
<feColorMatrix type="matrix" values="0 0 0 0 0.980392 0 0 0 0 0.984314 0 0 0 0 1 0 0 0 1 0"/>
<feBlend mode="normal" in2="effect1_dropShadow_104_242" result="effect2_dropShadow_104_242"/>
<feBlend mode="normal" in="SourceGraphic" in2="effect2_dropShadow_104_242" result="shape"/>
</filter>
</defs>
</svg>
