<svg width="105" height="105" viewBox="0 0 105 105" fill="none" xmlns="http://www.w3.org/2000/svg">
<g filter="url(#filter0_dd_104_241)">
<circle cx="52.5" cy="52.5" r="37.5" fill="#EFF2F9"/>
</g>
<path d="M38 50.75V38.25H50.5V50.75H38ZM41.125 47.625H47.375V41.375H41.125V47.625ZM38 66.375V53.875H50.5V66.375H38ZM41.125 63.25H47.375V57H41.125V63.25ZM53.625 50.75V38.25H66.125V50.75H53.625ZM56.75 47.625H63V41.375H56.75V47.625ZM63 66.375V63.25H66.125V66.375H63ZM53.625 57V53.875H56.75V57H53.625ZM56.75 60.125V57H59.875V60.125H56.75ZM53.625 63.25V60.125H56.75V63.25H53.625ZM56.75 66.375V63.25H59.875V66.375H56.75ZM59.875 63.25V60.125H63V63.25H59.875ZM59.875 57V53.875H63V57H59.875ZM63 60.125V57H66.125V60.125H63Z" fill="#4564AD"/>
<path d="M44.1036 74.0556L52.6768 65.4823L52.835 65.3241L52.6952 65.1494C52.1582 64.4781 51.7313 63.7041 51.4159 62.8253C51.1021 61.9512 50.9444 61.0193 50.9444 60.0278C50.9444 57.5694 51.793 55.498 53.4927 53.7983C55.1925 52.0986 57.2638 51.25 59.7222 51.25C62.1806 51.25 64.252 52.0986 65.9517 53.7983C67.6514 55.498 68.5 57.5694 68.5 60.0278C68.5 62.4862 67.6514 64.5575 65.9517 66.2573C64.252 67.957 62.1806 68.8056 59.7222 68.8056C58.7307 68.8056 57.7988 68.6479 56.9247 68.3341C56.0459 68.0187 55.2719 67.5918 54.6006 67.0548L54.4259 66.915L54.2677 67.0732L45.6944 75.6464L44.1036 74.0556ZM53.2222 60.0278C53.2222 61.8294 53.8557 63.3689 55.1184 64.6316C56.3811 65.8943 57.9206 66.5278 59.7222 66.5278C61.5239 66.5278 63.0634 65.8943 64.3261 64.6316C65.5888 63.3689 66.2222 61.8294 66.2222 60.0278C66.2222 58.2261 65.5888 56.6866 64.3261 55.4239C63.0634 54.1612 61.5239 53.5278 59.7222 53.5278C57.9206 53.5278 56.3811 54.1612 55.1184 55.4239C53.8557 56.6866 53.2222 58.2261 53.2222 60.0278Z" fill="#4564AD" stroke="#EFF2F9" stroke-width="0.5"/>
<defs>
<filter id="filter0_dd_104_241" x="0" y="0" width="105" height="105" filterUnits="userSpaceOnUse" color-interpolation-filters="sRGB">
<feFlood flood-opacity="0" result="BackgroundImageFix"/>
<feColorMatrix in="SourceAlpha" type="matrix" values="0 0 0 0 0 0 0 0 0 0 0 0 0 0 0 0 0 0 127 0" result="hardAlpha"/>
<feOffset dx="5" dy="5"/>
<feGaussianBlur stdDeviation="5"/>
<feComposite in2="hardAlpha" operator="out"/>
<feColorMatrix type="matrix" values="0 0 0 0 0.0862745 0 0 0 0 0.105882 0 0 0 0 0.113725 0 0 0 0.23 0"/>
<feBlend mode="normal" in2="BackgroundImageFix" result="effect1_dropShadow_104_241"/>
<feColorMatrix in="SourceAlpha" type="matrix" values="0 0 0 0 0 0 0 0 0 0 0 0 0 0 0 0 0 0 127 0" result="hardAlpha"/>
<feOffset dx="-5" dy="-5"/>
<feGaussianBlur stdDeviation="5"/>
<feComposite in2="hardAlpha" operator="out"/>
<feColorMatrix type="matrix" values="0 0 0 0 0.980392 0 0 0 0 0.984314 0 0 0 0 1 0 0 0 1 0"/>
<feBlend mode="normal" in2="effect1_dropShadow_104_241" result="effect2_dropShadow_104_241"/>
<feBlend mode="normal" in="SourceGraphic" in2="effect2_dropShadow_104_241" result="shape"/>
</filter>
</defs>
</svg>
